<?xml version="1.0" encoding="utf-8"?>
<!-- Generator: Adobe Illustrator 24.2.3, SVG Export Plug-In . SVG Version: 6.00 Build 0)  -->
<svg version="1.1" id="Layer_1" xmlns="http://www.w3.org/2000/svg" xmlns:xlink="http://www.w3.org/1999/xlink" x="0px" y="0px"
	 viewBox="0 0 250 250" style="enable-background:new 0 0 250 250;" xml:space="preserve">
<style type="text/css">
	.st0{fill:#4652A4;}
</style>
<path class="st0" d="M123.23,127.61L123.23,127.61c-1.75,0-3.16-1.42-3.16-3.16V81.41c0-1.75,1.42-3.16,3.16-3.16h0
	c1.75,0,3.16,1.42,3.16,3.16v43.04C126.4,126.19,124.98,127.61,123.23,127.61z"/>
<path class="st0" d="M125.38,122.19L125.38,122.19c1.24,1.24,1.24,3.24,0,4.48l-21.82,21.82c-1.24,1.24-3.24,1.24-4.48,0l0,0
	c-1.24-1.24-1.24-3.24,0-4.48l21.82-21.82C122.14,120.95,124.15,120.95,125.38,122.19z"/>
<path class="st0" d="M133.43,189.82c-3.33,0.51-6.73,0.78-10.2,0.78c-36.5,0-66.08-29.49-66.08-65.86
	c0-36.38,29.59-65.86,66.08-65.86s66.08,29.49,66.08,65.86c0,3.99-0.38,7.89-1.06,11.69h4.67c0.64-3.8,0.99-7.7,0.99-11.69
	c0-38.9-31.64-70.44-70.68-70.44s-70.68,31.54-70.68,70.44c0,38.9,31.64,70.44,70.68,70.44c3.47,0,6.87-0.26,10.2-0.74V189.82z"/>
<ellipse class="st0" cx="148.21" cy="156.78" rx="3.64" ry="3.45"/>
<rect x="164.5" y="154.96" class="st0" width="57.86" height="3.54"/>
<ellipse class="st0" cx="148.21" cy="170.94" rx="3.64" ry="3.45"/>
<rect x="164.5" y="169.12" class="st0" width="57" height="2.88"/>
<ellipse class="st0" cx="148.21" cy="185.11" rx="3.64" ry="3.45"/>
<rect x="164.5" y="183.29" class="st0" width="56.57" height="3.49"/>
</svg>
